<svg width="16" height="16" viewBox="0 0 16 16" fill="none" xmlns="http://www.w3.org/2000/svg">
<g clip-path="url(#clip0_51_495)">
<path d="M8.00333 16.0067C12.4235 16.0067 16.0067 12.4235 16.0067 8.00333C16.0067 3.58321 12.4235 0 8.00333 0C3.58321 0 0 3.58321 0 8.00333C0 12.4235 3.58321 16.0067 8.00333 16.0067Z" fill="url(#paint0_linear_51_495)"/>
<path fill-rule="evenodd" clip-rule="evenodd" d="M3.61847 7.9167C5.95083 6.90379 7.50351 6.23073 8.28319 5.9042C10.5023 4.97792 10.9687 4.81799 11.2686 4.81133C11.3353 4.81133 11.4819 4.82465 11.5818 4.90462C11.6618 4.97126 11.6818 5.05789 11.6951 5.12453C11.7084 5.19117 11.7218 5.33111 11.7084 5.43773C11.5885 6.70387 11.0687 9.77592 10.8021 11.1887C10.6889 11.7884 10.4689 11.9883 10.2557 12.0083C9.78923 12.0483 9.43604 11.7018 8.98956 11.4086C8.28319 10.9488 7.89002 10.6622 7.20364 10.2091C6.41064 9.68929 6.92375 9.40275 7.3769 8.93627C7.49685 8.81632 9.54266 6.95043 9.58265 6.78384C9.58931 6.76385 9.58931 6.68388 9.54266 6.64389C9.49602 6.60391 9.42938 6.61724 9.37607 6.63057C9.30276 6.6439 8.18323 7.39025 6.00414 8.86297C5.68427 9.08288 5.39772 9.1895 5.13783 9.18284C4.85128 9.17617 4.30485 9.0229 3.89168 8.88963C3.39189 8.72969 2.99206 8.64306 3.02538 8.36318C3.04537 8.21657 3.24529 8.06997 3.61847 7.9167Z" fill="white"/>
</g>
<defs>
<linearGradient id="paint0_linear_51_495" x1="7.99667" y1="0" x2="7.99667" y2="15.88" gradientUnits="userSpaceOnUse">
<stop stop-color="#2AABEE"/>
<stop offset="1" stop-color="#229ED9"/>
</linearGradient>
<clipPath id="clip0_51_495">
<rect width="16" height="16" fill="white"/>
</clipPath>
</defs>
</svg>
