<svg viewBox="0 0 30 30" fill="none" xmlns="http://www.w3.org/2000/svg">
    <rect width="30" height="30" rx="2" fill="#677E8B"/>
    <path d="M13.5971 20.9563C13.5904 21.0164 13.5771 21.0766 13.557 21.1367C13.5436 21.1902 13.5002 21.2336 13.4267 21.2671C13.3999 21.2804 13.2662 21.3306 13.0256 21.4174C12.7917 21.4977 12.5176 21.5946 12.2035 21.7082C11.896 21.8151 11.5886 21.9221 11.2811 22.029C10.9803 22.1427 10.7497 22.2296 10.5893 22.2897C10.5091 22.3231 10.4088 22.3566 10.2885 22.39C10.1749 22.4301 10.0613 22.4501 9.94762 22.4501C9.85405 22.4501 9.7705 22.4267 9.69697 22.3799C9.63013 22.3332 9.59671 22.2463 9.59671 22.1193C9.59671 21.8252 9.6034 21.5578 9.61676 21.3172C9.63682 21.0699 9.66021 20.8125 9.68695 20.5452C9.71368 20.2778 9.74042 19.9837 9.76716 19.6629C9.80058 19.3354 9.83065 18.9477 9.85739 18.4999C9.89081 17.9117 9.92757 17.3469 9.96768 16.8055C10.0078 16.2574 10.0479 15.6892 10.088 15.101L10.2284 13.3866C10.2484 13.1059 10.2685 12.8218 10.2885 12.5344C10.3086 12.2403 10.3286 11.9395 10.3487 11.632L10.459 10.4089C10.459 10.3955 10.4389 10.3888 10.3988 10.3888C10.3453 10.3888 10.2551 10.4022 10.1281 10.4289C10.0011 10.449 9.85071 10.4757 9.67692 10.5091C9.50314 10.5425 9.3093 10.5793 9.09541 10.6194C8.88821 10.6528 8.67432 10.6862 8.45374 10.7197C8.40027 10.7197 8.3468 10.7096 8.29333 10.6896C8.24654 10.6628 8.22314 10.6328 8.22314 10.5993C8.22314 10.5726 8.22983 10.5526 8.2432 10.5392L9.86742 7.70182C10.235 7.62161 10.6294 7.54141 11.0505 7.4612C11.4783 7.37431 11.9361 7.29744 12.4241 7.2306C12.912 7.16376 13.43 7.11029 13.9781 7.07018C14.5262 7.02339 15.1077 7 15.7226 7C16.4178 7.01337 17.0928 7.08355 17.7479 7.21055C18.4096 7.33086 18.9945 7.53806 19.5024 7.83216C20.0171 8.11957 20.4282 8.51393 20.7356 9.01523C21.0498 9.50985 21.2069 10.1382 21.2069 10.9001C21.2069 11.3212 21.1333 11.7089 20.9863 12.0632C20.8459 12.4174 20.6621 12.7382 20.4349 13.0257C20.2143 13.3064 19.9703 13.557 19.703 13.7776C19.4356 13.9915 19.1783 14.1753 18.931 14.329C18.6903 14.4828 18.4764 14.6064 18.2893 14.7C18.1021 14.7869 17.9751 14.8437 17.9083 14.8704C17.9083 14.8838 17.9116 14.9005 17.9183 14.9206C17.9317 14.9406 17.9551 14.9807 17.9885 15.0409C18.0219 15.0944 18.0687 15.1746 18.1289 15.2815C18.1957 15.3818 18.2793 15.5221 18.3795 15.7026C18.4865 15.863 18.6135 16.0769 18.7605 16.3443C18.9076 16.6116 19.0813 16.9291 19.2819 17.2967C19.4891 17.6577 19.7264 18.0621 19.9937 18.5099C20.2611 18.9577 20.5685 19.439 20.9161 19.9536C21.0297 20.0539 21.1601 20.1174 21.3071 20.1441C21.4542 20.1642 21.5912 20.1776 21.7182 20.1842C21.8452 20.1842 21.9521 20.1909 22.039 20.2043C22.1259 20.211 22.1694 20.2511 22.1694 20.3246C22.1694 20.3781 22.1126 20.4416 21.9989 20.5151C21.892 20.5819 21.765 20.6521 21.6179 20.7257C21.4709 20.7992 21.3205 20.8694 21.1668 20.9362C21.0197 21.003 20.9061 21.0565 20.8259 21.0966C20.6655 21.1768 20.4984 21.2537 20.3246 21.3272C20.1508 21.4007 19.9636 21.4843 19.7631 21.5779C19.5626 21.6648 19.3387 21.7684 19.0914 21.8887C18.8507 22.009 18.5767 22.1527 18.2692 22.3198C18.189 22.3666 18.1122 22.3967 18.0386 22.41C17.9718 22.4301 17.9083 22.4401 17.8481 22.4401C17.7278 22.4401 17.6242 22.41 17.5373 22.3499C17.4504 22.2964 17.3769 22.2296 17.3168 22.1494C17.2566 22.0691 17.2065 21.9856 17.1664 21.8987C17.133 21.8185 17.1029 21.7517 17.0761 21.6982L14.0884 15.4018L13.5971 20.9563ZM14.2087 14.1686C14.5496 14.1686 14.9038 14.0817 15.2715 13.9079C15.6391 13.7342 15.9733 13.5102 16.2741 13.2362C16.5748 12.9622 16.8221 12.6513 17.016 12.3038C17.2098 11.9562 17.3067 11.6053 17.3067 11.251C17.3067 10.2819 16.7252 9.79727 15.5622 9.79727C15.3416 9.79727 15.1578 9.81398 15.0108 9.8474C14.8637 9.87413 14.73 9.89418 14.6097 9.90755L14.2087 14.1686Z" fill="#3F4D55"/>
</svg>
    